<svg xmlns="http://www.w3.org/2000/svg" width="1421.64" height="1180.263" viewBox="0 0 1421.64 1180.263">
  <g id="Group_2864" data-name="Group 2864" transform="translate(5.458 100.263)">
    <g id="undraw_exciting_news_ksse" transform="translate(1047.84 940.937)">
      <path id="Path_12109" data-name="Path 12109" d="M667.678,601.94H537.425s-2.64-38.726,12.981-39.163,13.861,17.161,33.443-7.04,43.344-22.882,46.428-8.581-5.94,25.742,10.561,22.222S681.1,575.1,667.678,601.94Z" transform="translate(-322.112 -464.192)" fill="#232327"/>
      <path id="Path_12110" data-name="Path 12110" d="M655.636,601.749l-.44-.017c1.025-25.495,6.365-41.876,10.663-51.127,4.667-10.046,9.165-14.113,9.21-14.153l.292.328c-.044.04-4.493,4.065-9.12,14.044C661.968,560.035,656.657,576.345,655.636,601.749Z" transform="translate(-377.396 -463.991)" fill="#7e8085"/>
      <path id="Path_12111" data-name="Path 12111" d="M744.387,634.127l-.423-.123a68.263,68.263,0,0,1,17.186-28.592l.3.321a67.8,67.8,0,0,0-17.059,28.394Z" transform="translate(-419.007 -496.317)" fill="#7e8085"/>
      <path id="Path_12112" data-name="Path 12112" d="M566,625.6l-.436-.061a47.924,47.924,0,0,0-4.31-28.012,38.568,38.568,0,0,0-6.8-9.927l.3-.321a39.054,39.054,0,0,1,6.894,10.049A48.364,48.364,0,0,1,566,625.6Z" transform="translate(-330.171 -487.817)" fill="#7e8085"/>
      <path id="Path_12113" data-name="Path 12113" d="M672.873,589.37H510.9l-.037-.549c-.093-1.365-2.16-33.562,8.273-45.05a11.426,11.426,0,0,1,8.35-4.006c6.8-.194,11.073,2.353,14.52,4.4,6.5,3.851,10.789,6.4,26.393-12.887,16.9-20.894,35.144-25.389,45.629-22.893,6.775,1.615,11.447,6.18,12.81,12.525,1.294,6.008.881,11.653.551,16.189-.354,4.854-.634,8.687,1.359,10.424,1.664,1.449,4.985,1.581,10.452.415,11.118-2.372,26.637-.342,34.419,9.719,4.189,5.413,7.488,15.252-.578,31.386ZM512,588.194H672.146c6.011-12.2,6.2-22.5.535-29.813-7.143-9.23-22.129-11.661-33.242-9.288-5.938,1.268-9.477,1.058-11.47-.678-2.437-2.123-2.14-6.215-1.76-11.4.321-4.461.732-10.012-.527-15.855-1.268-5.884-5.616-10.121-11.932-11.627-10.151-2.422-27.88,2.017-44.44,22.484-16.244,20.077-21.138,17.175-27.908,13.158-3.49-2.069-7.451-4.416-13.887-4.234A10.291,10.291,0,0,0,520,544.564c-9.376,10.323-8.23,39.279-8,43.628Z" transform="translate(-309.633 -450.544)" fill="#232327"/>
      <path id="Path_12114" data-name="Path 12114" d="M188.187,623.086l-.618-.232c-.136-.051-13.662-5.233-20-16.985s-3.234-25.9-3.2-26.041l.147-.642.618.232c.136.051,13.662,5.233,20,16.985s3.234,25.9,3.2,26.041Zm-19.6-17.758c5.357,9.935,16.047,15.028,18.754,16.191.515-2.9,2.13-14.641-3.222-24.566s-16.047-15.026-18.754-16.191c-.516,2.9-2.13,14.635,3.222,24.561Z" transform="translate(-146.951 -484.022)" fill="#7e8085"/>
      <path id="Path_12115" data-name="Path 12115" d="M157.736,617.426c11.388,6.847,15.773,20.459,15.773,20.459s-14.077,2.5-25.461-4.351-15.773-20.459-15.773-20.459S146.348,610.57,157.736,617.426Z" transform="translate(-132.275 -499.701)" fill="#232327"/>
    </g>
    <path id="Ellipse_104" data-name="Ellipse 104" d="M63.412,0A63.412,63.412,0,1,1,0,63.412,63.412,63.412,0,0,1,63.412,0Z" transform="matrix(0.92, -0.391, 0.391, 0.92, -5.458, -26.174)" fill="#7e8085"/>
    <path id="Path_12150" data-name="Path 12150" d="M63.412,0A63.412,63.412,0,1,1,0,63.412,63.412,63.412,0,0,1,63.412,0Z" transform="matrix(0.92, -0.391, 0.391, 0.92, -0.596, -38.738)" fill="#232327"/>
    <path id="Path_12149" data-name="Path 12149" d="M93.122,186.244a93.122,93.122,0,1,1,93.122-93.122A93.122,93.122,0,0,1,93.122,186.244Zm0-184.1A90.981,90.981,0,1,0,184.1,93.122,90.981,90.981,0,0,0,93.122,2.141Z" transform="matrix(0.92, -0.391, 0.391, 0.92, 46.967, -27.483)" fill="#232327"/>
  </g>
</svg>
